# xmcd CD database file
#
# Track frame offsets:
#	187
#	5255
#	24497
#	40032
#	55477
#	70785
#	89710
#	97970
#	112062
#	124042
#	128402
#	138725
#	173475
#
# Disc length: 2714 seconds
#
# Revision: 0
# Processed by: cddbd v1.5.1PL0 Copyright (c) Steve Scherf et al.
# Submitted via: CDex 1.50beta8
#
DISCID=a80a980d
DTITLE=タブラトゥーラ - Tablatura 2
DYEAR=1989
DGENRE=New Age
TTITLE0=サルタレロI
TTITLE1=サルタレロII
TTITLE2=季節風
TTITLE3=砂の伝説
TTITLE4=カッツェン・ゴールド
TTITLE5=アジャン
TTITLE6=オン・ザ・グラス
TTITLE7=ゴルゴン・メドゥーサ
TTITLE8=それゆえに私は歌う…
TTITLE9=夏は来たりぬ
TTITLE10=バラータ（炎の愛）
TTITLE11=サンタ・マリアのカンティガス
TTITLE12=満月の夜
EXTD=YEAR: 1989
EXTT0=
EXTT1=
EXTT2=
EXTT3=
EXTT4=
EXTT5=
EXTT6=
EXTT7=
EXTT8=
EXTT9=
EXTT10=
EXTT11=
EXTT12=
PLAYORDER=
